<svg xmlns="http://www.w3.org/2000/svg" viewBox="0 0 50 50">
  <defs>
    <style>
      .cls-1 {
        fill: #fff;
      }
    </style>
  </defs>
  <path id="Path_1434" data-name="Path 1434" class="cls-1" d="M-308-17.345a7.1,7.1,0,0,1-7.087,7.087h-1.04l0-11.4,3.206,0,.428-4.045h-3.64l.005-2.025c0-1.054.074-1.619,1.587-1.619h2.025v-4.048h-3.239c-3.886,0-4.781,2.008-4.781,5.31l0,2.382-2.935,0v4.045h2.935v11.4h-6.614a7.1,7.1,0,0,1-7.087-7.087V-29.4a7.1,7.1,0,0,1,7.087-7.087h12.054A7.1,7.1,0,0,1-308-29.4Zm-13.114-31.027a25,25,0,0,0-25,25,25,25,0,0,0,25,25,25,25,0,0,0,25-25,25,25,0,0,0-25-25" transform="translate(346.111 48.372)"/>
</svg>
