<svg xmlns="http://www.w3.org/2000/svg" viewBox="0 0 50 50">
  <defs>
    <style>
      .cls-1 {
        fill: #fff;
      }
    </style>
  </defs>
  <path id="Path_1432" data-name="Path 1432" class="cls-1" d="M-166.051-24.4a3.767,3.767,0,0,1-3.17,4.273,3.737,3.737,0,0,1-2.793-.7,3.738,3.738,0,0,1-1.48-2.47,3.736,3.736,0,0,1,.7-2.793,3.739,3.739,0,0,1,2.47-1.48,3.779,3.779,0,0,1,.551-.041,3.78,3.78,0,0,1,.552.041,3.742,3.742,0,0,1,3.17,3.17m9.341,6.631a7.1,7.1,0,0,1-7.087,7.087h-12.055a7.1,7.1,0,0,1-7.086-7.087V-29.82a7.1,7.1,0,0,1,7.086-7.087H-163.8a7.1,7.1,0,0,1,7.087,7.087Zm-13.115-31.027a25,25,0,0,0-25,25,25,25,0,0,0,25,25,25,25,0,0,0,25-25,25,25,0,0,0-25-25m7.38,19.119a1.067,1.067,0,0,1-.749.31,1.067,1.067,0,0,1-.749-.31,1.068,1.068,0,0,1-.311-.749,1.068,1.068,0,0,1,.311-.75,1.068,1.068,0,0,1,.749-.31,1.068,1.068,0,0,1,.749.31,1.069,1.069,0,0,1,.31.75,1.069,1.069,0,0,1-.31.749m-2.188,9.64a6.36,6.36,0,0,1-4.2,2.517,6.51,6.51,0,0,1-.952.071,6.349,6.349,0,0,1-3.8-1.26,6.36,6.36,0,0,1-2.517-4.2,6.356,6.356,0,0,1,1.19-4.749,6.358,6.358,0,0,1,4.2-2.517,6.414,6.414,0,0,1,1.877,0,6.352,6.352,0,0,1,3.585,1.805,6.352,6.352,0,0,1,1.8,3.585,6.357,6.357,0,0,1-1.19,4.749m.448-14.045h-11.278a4.653,4.653,0,0,0-4.647,4.647v11.277a4.653,4.653,0,0,0,4.647,4.647h11.278a4.653,4.653,0,0,0,4.647-4.647V-29.431a4.653,4.653,0,0,0-4.647-4.647" transform="translate(194.826 48.792)"/>
</svg>
