<svg xmlns="http://www.w3.org/2000/svg" xmlns:xlink="http://www.w3.org/1999/xlink" viewBox="0 0 209.918 97.656">
  <defs>
    <style>
      .cls-1 {
        fill: #fff;
      }

      .cls-2 {
        fill: url(#linear-gradient);
      }

      .cls-3 {
        fill: url(#linear-gradient-2);
      }

      .cls-4 {
        fill: url(#linear-gradient-3);
      }

      .cls-5 {
        fill: url(#linear-gradient-4);
      }

      .cls-6 {
        fill: url(#linear-gradient-5);
      }

      .cls-7 {
        fill: url(#linear-gradient-6);
      }

      .cls-8 {
        fill: url(#linear-gradient-7);
      }

      .cls-9 {
        fill: #ff9012;
      }

      .cls-10 {
        fill: none;
      }

      .cls-11 {
        fill: #d13239;
      }
    </style>
    <linearGradient id="linear-gradient" x1="-0.004" y1="0.5" x2="0.997" y2="0.5" gradientUnits="objectBoundingBox">
      <stop offset="0" stop-color="#a9a8a9"/>
      <stop offset="1" stop-color="#55565a"/>
    </linearGradient>
    <linearGradient id="linear-gradient-2" x1="-0.002" y1="0.502" x2="1.002" y2="0.502" xlink:href="#linear-gradient"/>
    <linearGradient id="linear-gradient-3" x1="-0.003" y1="0.5" x2="1.001" y2="0.5" xlink:href="#linear-gradient"/>
    <linearGradient id="linear-gradient-4" x1="-0.002" y1="0.502" x2="1" y2="0.502" xlink:href="#linear-gradient"/>
    <linearGradient id="linear-gradient-5" x1="-0.006" y1="0.503" x2="0.993" y2="0.503" xlink:href="#linear-gradient"/>
    <linearGradient id="linear-gradient-6" x1="0.001" y1="0.5" x2="1.004" y2="0.5" xlink:href="#linear-gradient"/>
    <linearGradient id="linear-gradient-7" x1="-0.001" y1="0.5" x2="0.999" y2="0.5" xlink:href="#linear-gradient"/>
  </defs>
  <g id="Group_3798" data-name="Group 3798" transform="translate(0.037)">
    <g id="Group_3796" data-name="Group 3796" transform="translate(-0.037 0)">
      <path id="Path_1" data-name="Path 1" d="M31.108,97.656c16.637,0,20.673-6.005,20.673-6.005,3.249,6.005,14.471,5.907,14.471,5.907H122.07a13.633,13.633,0,0,0,2.56-2.264l1.772-2.166h10.73l1.28,4.43h27.86L176.8,59.066c5.021-1.772,6.6-6.3,7.777-10.337l3.446-11.616h5.021a18.2,18.2,0,0,0,6.6-1.083,12.253,12.253,0,0,0,7.777-7.482l2.461-8.368H174.048c-6.1,0-12.01,4.627-13.881,10.829l-.1.394H158.1c.689-3.15.3-5.907-1.181-7.876a8.716,8.716,0,0,0-6.694-3.347h-7.482l-.492,1.575a21.534,21.534,0,0,0-8.761-2.264,29.035,29.035,0,0,0-7.777.492,32.47,32.47,0,0,0-5.513,1.575l.394-1.378h-4.627v-.2a13.225,13.225,0,0,0,.1-1.87,5.844,5.844,0,0,0,1.28-1.772,6.6,6.6,0,0,0,.591-3.839v-.1h0a17.349,17.349,0,0,0-.591-6.891v-.2A7.4,7.4,0,0,0,113.111.394c-.1,0-.2-.1-.3-.1a5.732,5.732,0,0,0-1.87-.3,6.7,6.7,0,0,0-5.808,3.15,9.144,9.144,0,0,0-.492.984l-1.378-.1h-.1a10.154,10.154,0,0,0-1.969-.2,14.687,14.687,0,0,0-2.067.2h-.2A9,9,0,0,0,94.8,5.808a7.035,7.035,0,0,0-2.264,3.15l-.1.1a9.936,9.936,0,0,0-.689,1.477,9.061,9.061,0,0,0-.492,2.855,1.249,1.249,0,0,1-.1.591v.2q-.148.591-.3,1.477c0,.2-.1.492-.1.689V18.7c-.1.1-.1.2-.2.3-.2-.1-.394-.1-.591-.2-.394-.1-.689-.2-1.083-.3-.3-.2-.591-.492-.886-.689-.2-.1-.492-.3-.689-.394h0a7.1,7.1,0,0,0-2.855-2.56,4.634,4.634,0,0,0-1.575-.394,4.886,4.886,0,0,0-2.658.1,5.984,5.984,0,0,0-4.036,3.642,6.181,6.181,0,0,0-.3,1.87H41.74l-2.756,9.451c-.591-1.181-1.181-2.067-1.477-2.658-2.56-4.332-7.088-6.694-12.5-6.694H19C13.388,20.181,7.186,25,5.512,30.813L.393,47.745a9.224,9.224,0,0,0,1.378,8.368,8.212,8.212,0,0,0,6.694,3.249H17.03L4.331,97.656Z" transform="translate(0.037 0)"/>
      <path id="Path_2" data-name="Path 2" class="cls-1" d="M65.22,91.443h1.553a17311.99,17311.99,0,0,0,.777-.194c.1,0,.291-.1.388-.1s.291-.1.388-.1.291-.1.388-.1.291-.1.388-.1.291-.1.388-.1c.194,0,.291-.1.485-.1.1,0,.291-.1.388-.1s.291-.1.388-.1a.736.736,0,0,0,.388-.194c.1-.1.291-.1.388-.194s.291-.1.388-.194c.194-.1.291-.1.485-.194.1-.1.291-.1.388-.194.194-.1.291-.1.485-.194.1-.1.291-.1.388-.194s.291-.1.388-.194.291-.1.388-.194a.736.736,0,0,1,.388-.194c.1-.1.291-.194.388-.291a.5.5,0,0,1,.388-.194c.194-.1.291-.194.485-.291.1-.1.194-.1.291-.194.194-.194.485-.388.679-.582,3.688-3.009,5.047-6.6,6.212-10.677l4.659-16.5H86.089a8.123,8.123,0,0,0-7.377,5.921L75.606,76.592c-.582,2.038-1.165,4.174-3.009,5.63a2.113,2.113,0,0,1-.777.485.357.357,0,0,1-.291.1l-.582.291c-.1.1-.194.1-.388.194s-.291.194-.485.194c-.1.1-.291.1-.388.194-.194.1-.291.1-.485.194-.1,0-.291.1-.388.1-.194,0-.291.1-.485.1s-.291.1-.388.1-.291.1-.388.1a12365.511,12365.511,0,0,1-.777.194H66c-2.038,0-3.883-.1-4.853-1.553-1.068-1.456-.874-4.174-.291-6.212l3.106-10.871c.874-3.591-.582-5.727-3.98-5.921H58.135L53.281,76.981c-1.165,4.077-.679,7.571,1.456,10.386s5.242,4.271,9.415,4.271h.388a1.676,1.676,0,0,1,.679-.194" transform="translate(-0.634 -0.387)"/>
      <path id="Path_3" data-name="Path 3" class="cls-1" d="M101.657,85.908H89.815l2.427-8.153h13.007c1.165,0,4.174,0,2.912,3.786-1.359,4.368-4.659,4.368-6.5,4.368M95.833,65.233h12.618c1.262,0,3.786,0,2.718,3.4a4.869,4.869,0,0,1-2.912,3.2,7.776,7.776,0,0,1-2.621.291H93.8ZM112.723,88.14a17.826,17.826,0,0,0,3.494-6.989c1.068-5.242-2.815-6.406-4.562-6.892a10.962,10.962,0,0,0,4.853-2.524,10.2,10.2,0,0,0,2.621-4.271A6.912,6.912,0,0,0,119.323,63c-1.165-3.106-5.144-3.2-8.348-3.3H100.007c-4.465,0-9.221,0-12.036,6.212L80.4,91.44h21.451c2.038,0,7.668.485,10.871-3.3" transform="translate(-0.955 -0.384)"/>
      <path id="Path_4" data-name="Path 4" class="cls-1" d="M172.357,59.7h-2.524a8.892,8.892,0,0,0-7.959,6.309L154.4,91.44h8.639Z" transform="translate(-2.164 -0.384)"/>
      <path id="Path_5" data-name="Path 5" class="cls-1" d="M23.918,86.1l.485,1.165c1.165,2.427,2.912,3.883,5.047,3.98h.388c4.659,0,10.774.1,16.986-5.727.582-.582,1.165-1.262,1.65-1.844a35,35,0,0,0,3.883-8.348C54.2,69.5,53.523,67.365,53.426,66.1c-1.068-3.494-3.98-5.824-8.93-6.309-1.068-.1-2.233-.1-3.3-.194H30.713a9.267,9.267,0,0,0-8.736,6.795L14.6,91.437h7.959l1.262-5.63L30.227,65.23h8.93c2.621,0,5.824.1,6.795,3.4a12.192,12.192,0,0,1-.485,6.5A17.95,17.95,0,0,1,41.2,82.7c-3.009,3.009-6.115,3.106-8.93,3.106H24.209Z" transform="translate(-0.392 -0.382)"/>
      <path id="Path_6" data-name="Path 6" class="cls-1" d="M130.066,79.987l9.124-11.551,3.4,11.551ZM145.985,91.44h7.862l-7.474-25.431a8.892,8.892,0,0,0-7.959-6.309h-1.844L112.4,90.47l1.65.582c3.591,1.068,7.086-.1,9.707-3.2l1.747-2.135h18.734Z" transform="translate(-1.324 -0.385)"/>
      <g id="Group_3794" data-name="Group 3794" transform="translate(5.278 25.349)">
        <path id="Path_7" data-name="Path 7" class="cls-1" d="M177.37,52.219a8.79,8.79,0,0,0,2.718-3.883h0l4.853-16.4h9.9a17.394,17.394,0,0,0,4.659-.679,5.134,5.134,0,0,0,3.2-3.009h0l.582-1.844H173.973a7.524,7.524,0,0,0-6.989,5.533l-1.65,5.533h-13.2l1.65-5.436h0a5.375,5.375,0,0,0,.194-1.747,3.5,3.5,0,0,0-1.068-2.718A4.51,4.51,0,0,0,149.9,26.4h-1.747L140,53.869h7.183l3.3-11.065h13.2l-3.3,11.065h7.183l6.5-21.937h3.688l-6.5,21.937H173.1A7.933,7.933,0,0,0,177.37,52.219Z" transform="translate(-6.41 -25.623)"/>
        <path id="Path_8" data-name="Path 8" class="cls-1" d="M19.28,26.3H17.436a7.242,7.242,0,0,0-4.271,1.65,8.79,8.79,0,0,0-2.718,3.883h0L5.594,48.14h0A5.375,5.375,0,0,0,5.4,49.887,3.884,3.884,0,0,0,6.468,52.7a4.51,4.51,0,0,0,3.009,1.165h1.747Z" transform="translate(-5.4 -25.621)"/>
        <path id="Path_9" data-name="Path 9" class="cls-1" d="M135.455,37.442h-5.339a6.594,6.594,0,0,0-3.106,1.068,5.616,5.616,0,0,0-1.941,2.718h0l-.388,1.359h8.445a8.2,8.2,0,0,1-3.688,4.659,12.161,12.161,0,0,1-5.921,1.456h-7.183l2.524-8.639a26.853,26.853,0,0,1,1.747-4.756,5.843,5.843,0,0,1,2.427-2.427h0a13.98,13.98,0,0,1,6.309-1.65h.582a6.256,6.256,0,0,1,4.271,1.359h0a3.145,3.145,0,0,1,.777.874h0a2.35,2.35,0,0,0,1.068.777,5.671,5.671,0,0,0,2.038.291,17.258,17.258,0,0,0,2.815-.291h0l2.524-.485v-.194a8.4,8.4,0,0,0-2.621-4.95c-2.038-1.844-4.756-2.621-8.445-2.912-.582,0-1.165-.1-1.844-.1a16.491,16.491,0,0,0-4.271.485h0a20.332,20.332,0,0,0-9.8,4.465h0c-2.427,2.135-3.494,4.756-4.368,7.571h0v.1h0c-.194.679-.388,1.359-.582,2.135L107.5,53.943h14.269c4.756,0,7.668-.874,9.415-1.747a8.42,8.42,0,0,0,1.844-1.262l.1-.1v.485a2.849,2.849,0,0,0,.679,1.844,2.416,2.416,0,0,0,1.844.679h1.941l3.3-11.26,1.553-5.242-.874.1h-6.115Z" transform="translate(-6.553 -25.6)"/>
        <path id="Path_10" data-name="Path 10" class="cls-1" d="M57.18,42.51H68.051a6.552,6.552,0,0,0,6.309-3.883h0l.388-1.359H58.83l1.65-5.63H78.923v-.194L80.476,26.3H60a8.029,8.029,0,0,0-4.271,1.747,8.948,8.948,0,0,0-2.621,3.98l-.194.582-1.262,4.077L46.6,53.769h7.28Z" transform="translate(-5.875 -25.621)"/>
        <path id="Path_11" data-name="Path 11" class="cls-1" d="M113.545,26.3h-1.553a7.242,7.242,0,0,0-4.271,1.65A8.79,8.79,0,0,0,105,31.833h0L98.5,53.769h7.183L113.836,26.3Z" transform="translate(-6.645 -25.621)"/>
        <path id="Path_12" data-name="Path 12" class="cls-1" d="M97.934,48.528h-16.5l6.6-22.228H86a8.029,8.029,0,0,0-4.271,1.747,13.228,13.228,0,0,0-2.621,3.98c-.1.291-.194.679-.194.679l-1.262,4.077L72.6,53.867H96.381Z" transform="translate(-6.235 -25.621)"/>
        <path id="Path_13" data-name="Path 13" class="cls-1" d="M51.976,26.3H44.987v.194L39.552,44.742c-1.262-2.038-7.28-12.716-7.959-13.88a8.489,8.489,0,0,0-4.562-3.688,15.879,15.879,0,0,0-5.436-.874H21.4L14.994,48.14h0a5.375,5.375,0,0,0-.194,1.747A3.5,3.5,0,0,0,15.868,52.6a4.51,4.51,0,0,0,3.009,1.165h1.165l5.63-18.928c3.2,5.339,7.765,13.1,9.512,16.113a5.036,5.036,0,0,0,3.4,2.427,17.014,17.014,0,0,0,4.465.388h.874Z" transform="translate(-5.676 -25.621)"/>
      </g>
      <g id="Group_3795" data-name="Group 3795" transform="translate(5.763 25.639)">
        <path id="Path_14" data-name="Path 14" class="cls-2" d="M6.094,48.251A10.809,10.809,0,0,0,5.9,49.9a3.23,3.23,0,0,0,.874,2.427A4.139,4.139,0,0,0,9.491,53.4H10.85l7.862-26.6H17.451a6.923,6.923,0,0,0-3.98,1.553,8.618,8.618,0,0,0-2.524,3.688Z" transform="translate(-5.9 -25.926)"/>
        <path id="Path_15" data-name="Path 15" class="cls-3" d="M53.609,53.393l3.3-11.357H68.072A6.164,6.164,0,0,0,73.9,38.445l.194-.777H58.074l1.941-6.5H78.458L79.817,26.7h-19.8a7.015,7.015,0,0,0-3.98,1.65,8.964,8.964,0,0,0-2.524,3.786l-.1.291-1.359,4.659L47.3,53.3h6.309Z" transform="translate(-6.378 -25.923)"/>
        <path id="Path_16" data-name="Path 16" class="cls-4" d="M96.11,53.4l1.262-4.368h-16.5l6.6-22.228H86.016a7.015,7.015,0,0,0-3.98,1.65,9.25,9.25,0,0,0-2.524,3.786l-.1.291-1.359,4.659L73.3,53.4Z" transform="translate(-6.739 -25.926)"/>
        <path id="Path_17" data-name="Path 17" class="cls-5" d="M35.49,50.772A4.534,4.534,0,0,0,38.6,53a16.286,16.286,0,0,0,4.368.388h.582l7.862-26.6H45.39L39.76,45.822l-.291-.388c-1.262-2.038-3.009-5.047-4.562-7.862s-2.912-5.339-3.591-6.5a8.523,8.523,0,0,0-4.368-3.494A15.912,15.912,0,0,0,21.8,26.7L15.494,48.248A10.809,10.809,0,0,0,15.3,49.9a3.23,3.23,0,0,0,.874,2.427,4.139,4.139,0,0,0,2.718,1.068h.874l5.824-19.607.291.388C28.889,39.61,33.839,47.763,35.49,50.772Z" transform="translate(-6.176 -25.923)"/>
        <path id="Path_18" data-name="Path 18" class="cls-6" d="M141.693,37.839H130.24a5.436,5.436,0,0,0-2.815.971,5.6,5.6,0,0,0-1.747,2.427l-.194.777h8.445l-.1.291a8.361,8.361,0,0,1-3.98,5.144,12.115,12.115,0,0,1-6.115,1.456h-7.765l2.718-9.221a32.11,32.11,0,0,1,1.747-4.853,5.524,5.524,0,0,1,2.621-2.524h0a15.4,15.4,0,0,1,6.5-1.747h.582a6.6,6.6,0,0,1,4.562,1.456h0a3.945,3.945,0,0,1,.874.971h0a3.412,3.412,0,0,0,.874.679,4.774,4.774,0,0,0,1.941.291,18.344,18.344,0,0,0,2.815-.291h0l2.135-.388a7.083,7.083,0,0,0-2.427-4.465h0c-1.941-1.747-4.562-2.524-8.251-2.815-.582,0-1.165-.1-1.747-.1a15.332,15.332,0,0,0-4.174.485h0a20.437,20.437,0,0,0-9.609,4.368h0c-2.427,2.038-3.4,4.562-4.271,7.377h0c-.194.679-.388,1.359-.582,2.135L108.4,53.272h13.686a21.6,21.6,0,0,0,8.445-1.359,8.393,8.393,0,0,0,3.009-1.844l.194-.194.1-.1.485-.291-.194.582a5.009,5.009,0,0,0-.194,1.068,2,2,0,0,0,2.135,2.135h1.553l3.2-10.871,1.359-4.659-.485.1Z" transform="translate(-7.056 -25.9)"/>
        <path id="Path_19" data-name="Path 19" class="cls-7" d="M112.01,26.8a7.5,7.5,0,0,0-4.077,1.553,8.618,8.618,0,0,0-2.524,3.688L99.1,53.4h6.212l7.862-26.6Z" transform="translate(-7.148 -25.926)"/>
        <path id="Path_20" data-name="Path 20" class="cls-8" d="M171.858,53.393l6.406-21.646h0l.1-.291H173.7l-6.5,21.937h-6.212l3.3-11.065H150.212l-3.3,11.065H140.7l7.862-26.6h1.359a4.365,4.365,0,0,1,2.718,1.068,3.23,3.23,0,0,1,.874,2.427,10.809,10.809,0,0,1-.194,1.65h0l-1.747,6.018h14.074l1.747-5.921a7.206,7.206,0,0,1,6.7-5.339l28.634.1-.388,1.262a4.278,4.278,0,0,1-2.912,2.718,16.667,16.667,0,0,1-4.562.679H184.671l-4.95,16.7A8.618,8.618,0,0,1,177.2,51.84a7.223,7.223,0,0,1-4.077,1.553h-1.262Z" transform="translate(-6.916 -25.923)"/>
      </g>
    </g>
    <rect id="Rectangle_22" data-name="Rectangle 22" width="3.397" height="2.524" transform="translate(84.779 24.719)"/>
    <g id="Group_3797" data-name="Group 3797" transform="translate(74.454 5.436)">
      <path id="Path_21" data-name="Path 21" class="cls-9" d="M87.633,26.372a1.38,1.38,0,0,1-.582-.194c-.194-.1-.291-.1-.291-.194s-.1-.291-.1-.388h0v-.1a12.647,12.647,0,0,1,1.456.971A.875.875,0,0,0,87.633,26.372Zm25.14-14.366a11.146,11.146,0,0,0,.1-1.844,10.24,10.24,0,0,0-.388-3.009l-.291-.874a1.173,1.173,0,0,0-.679-.679h-.291c-.194,0-.388.1-.582.1-.1,0-.194.1-.291.1-.1.1-.194.1-.194.194a1.8,1.8,0,0,0-.194.679,1.439,1.439,0,0,1-.1.679,5.139,5.139,0,0,1-.388,1.553,1.662,1.662,0,0,1-1.068.874c-.582,0-1.068-.1-1.65-.1h0c-1.165-.1-2.33-.1-3.494-.194h0a7.846,7.846,0,0,0-1.553-.1,2.687,2.687,0,0,0-.874.1l-1.165.291a2.276,2.276,0,0,0-.971.485,2.95,2.95,0,0,0-.485.679,4.73,4.73,0,0,1-.291.679c-.1.194-.194.291-.291.485h0a12.22,12.22,0,0,0-.388,2.621c-.1.485-.291.971-.388,1.553h0v1.456h0v.777a9.417,9.417,0,0,0,.1,1.65,16.6,16.6,0,0,1-1.068,1.359h0a10.588,10.588,0,0,1-.582,1.068,2.573,2.573,0,0,1-.582.485h0c-.1.194-.291.388-.388.582-.1.1-.194.194-.291.194-.1.1-.291.1-.485.291h0a.736.736,0,0,0-.194.388l-.1.1a.1.1,0,0,1-.1.1.3.3,0,0,1-.194-.1c-.1,0-.194-.1-.291-.1-.582-.194-1.262-.291-1.747-.485-1.165-.388-2.524-.777-3.591-1.165h0c-.194,0-.388-.1-.582-.1a1.2,1.2,0,0,1-.194-.291c-.1-.1-.194-.291-.388-.485h0c-.582-.194-1.165-.485-1.747-.679-.1,0-.194-.194-.291-.291a7.7,7.7,0,0,1-.388-.874c-.1-.1-.1-.291-.194-.388l-.291-.291H82.78l-.1-.1-.1-.1h-.1c-.1,0-.1,0-.194.1-.1,0-.1.1-.194.194h0v2.135h0l.874,1.456h0l.194.194c.1.1.194.1.291.194h.1v.874h0c.194.388.291.777.485,1.165h0a1.34,1.34,0,0,0,.388.291c.194.1.485.194.679.291a3.232,3.232,0,0,1,.582.291c.194.1.291.291.485.388h0c.291.1.582.291.874.388.485.291.971.777,1.553,1.068a10.041,10.041,0,0,1,2.038,1.068l.291.874h0a7.739,7.739,0,0,0,.777,1.553c.1.291.1.485.194.777h0a2.122,2.122,0,0,1,.291.485c.194.291.485.582.679.874a1.34,1.34,0,0,0,.291.388.357.357,0,0,1,.1.291h0a.881.881,0,0,1-.291.679.969.969,0,0,1-.485.388h0a4.2,4.2,0,0,1-.485.1,1.38,1.38,0,0,0-.582.194l-.1.1v1.747h0a.1.1,0,0,0-.1.1c-.1,0-.1.1-.194.1,0,.1-.1.1-.1.194v.194c.1.194.291.291.388.388s.194.194.194.291v.194a.727.727,0,0,0,.1.485v.291h0l-.1.1c0,.1-.1.194-.1.291v.194a2.513,2.513,0,0,0,.679,1.068,5.892,5.892,0,0,0,.971.679c.1.485.388.485.582.485h.971a2.815,2.815,0,0,0,1.068-.291,2.894,2.894,0,0,0,1.359-.971,2.449,2.449,0,0,0,.582-1.65,3.81,3.81,0,0,0-.291-1.359h0c-.1-.291-.194-.485-.291-.777h0c-.1-.1-.194-.1-.194-.194h-.1v-.194h0l.1-.1v-.1a2.608,2.608,0,0,1,.485-1.262,9.718,9.718,0,0,1,.971-.874l.777-.777.291-.291c.1-.1.194-.291.291-.388h0a4.726,4.726,0,0,0,.1-1.165h0c.1-.485.1-.874.194-1.359h0v-.194c0-.485-.194-.874-.194-1.165,0-.194-.1-.388-.1-.679a2.687,2.687,0,0,1,.1-.874c0-.291.1-.485.1-.679a3.957,3.957,0,0,1,.194-.679c.1-.1.1-.291.194-.388,0-.1,0-.1.1-.1h0a8.4,8.4,0,0,1,.971-.679,2.753,2.753,0,0,0,.971-.874,6.71,6.71,0,0,0,.971-2.427v-.874a4.07,4.07,0,0,0-.388-1.553,4.806,4.806,0,0,1-.388-1.262,3.489,3.489,0,0,0,1.068-.194h1.068a4.732,4.732,0,0,1,.679-.291c.388,0,.679.1,1.068.1a.1.1,0,0,1,.1.1c.1.1.194.194.291.194h.582a.875.875,0,0,1,.485.1V18.9h.1a10.269,10.269,0,0,0,1.941.291h.679v-.194c0-.291.1-.679.1-.971V15.889h0V14.336h.485c.194-.1.291-.1.388-.194a.584.584,0,0,1,.388-.1h.291l.1-.1a1.892,1.892,0,0,0,.1-.777V12.2C112.773,12.2,112.773,12.1,112.773,12.006ZM85.4,25.11h0q-.291-.146-.291-.291c0-.1-.1-.194-.1-.291.1,0,.194.1.291.1s.194.1.291.1h.1c-.194.194-.194.291-.291.388Zm23.3-10.192h0a.5.5,0,0,1-.388-.194h0c-.291-.1-.582-.1-.874-.194h-.874a3.448,3.448,0,0,1-.874-.388,6.186,6.186,0,0,0,.679-.194c.291,0,.679-.1.971-.1h.679a2.41,2.41,0,0,1,.874.1.741.741,0,0,1,.485.194v.1c-.1.194-.291.388-.388.582C108.793,14.821,108.7,14.821,108.7,14.918Z" transform="translate(-75.597 -5.6)"/>
      <path id="Path_22" data-name="Path 22" class="cls-10" d="M76.177,31.891c-.1-.1-.194-.1-.388-.194-.1-.1-.194-.1-.388-.1a.5.5,0,0,0,.194.388c.1.194.194.291.291.485h.1l.1-.1a.727.727,0,0,0,.1-.485Z" transform="translate(-75.4 -6.363)"/>
      <path id="Path_23" data-name="Path 23" class="cls-11" d="M112.311,12.018a10.552,10.552,0,0,0,.1-1.747,9.6,9.6,0,0,0-.388-2.912l-.291-.874A.8.8,0,0,0,111.243,6h-.1a.584.584,0,0,0-.388.1.978.978,0,0,0-.291.1h0a.727.727,0,0,0-.1.485,1.652,1.652,0,0,1-.1.679,4.617,4.617,0,0,1-.485,1.747,2.206,2.206,0,0,1-1.359,1.068h0c-.582,0-1.165-.1-1.65-.1-1.165-.1-2.33-.1-3.494-.194h0a7.346,7.346,0,0,0-1.456-.1,2.137,2.137,0,0,0-.777.1c-.388.1-.777.194-1.068.291a1.829,1.829,0,0,0-.874.388,1.493,1.493,0,0,0-.388.582,6.685,6.685,0,0,0-.291.777h0c-.1.194-.194.291-.291.485a17.3,17.3,0,0,0-.388,2.524c-.1.582-.291,1.068-.388,1.553v1.456h0v.777a9.416,9.416,0,0,0,.1,1.65v.194c-.388.485-.679.971-1.068,1.456l-.582,1.165h0a2.574,2.574,0,0,1-.582.485c-.1.194-.291.388-.388.582h0a.887.887,0,0,1-.485.291c-.1.1-.194.1-.291.194s-.1.291-.194.388h0a.1.1,0,0,1-.1.1h0v.194l-.1.1c-.1,0-.1.1-.194.1-.194,0-.291-.1-.388-.1a.357.357,0,0,0-.291-.1,11.736,11.736,0,0,1-1.747-.485c-1.165-.388-2.427-.777-3.591-1.165-.194,0-.388-.1-.582-.1h0c-.194-.1-.291-.291-.388-.388s-.194-.291-.291-.291c-.582-.194-1.165-.485-1.747-.679h0a2.336,2.336,0,0,1-.582-.777,5.764,5.764,0,0,0-.388-.777c-.1-.1-.1-.194-.194-.194h0v.1h-.194l-.1-.1-.1-.1c0,.388.1,1.262.1,1.553v.1a9.7,9.7,0,0,1,.777,1.359h0a.339.339,0,0,0,.194.1c.1.1.194.1.291.194a.1.1,0,0,1,.1.1v1.165c.194.388.291.679.485,1.068,0,.1.1.1.194.194s.291.1.388.194a2.4,2.4,0,0,1,.874.388h0a1.7,1.7,0,0,1,.485.388,5.764,5.764,0,0,1,.777.388h0a13.889,13.889,0,0,0,1.456,1.068,11.6,11.6,0,0,1,2.135,1.165h0v.1l.291.874h0a11.589,11.589,0,0,0,.777,1.553h0c.1.291.1.485.194.777l.194.194c.1.1.194.291.291.388a8.4,8.4,0,0,1,.679.971,1.38,1.38,0,0,1,.194.582v.1a3.085,3.085,0,0,1-.291.874,1.206,1.206,0,0,1-.777.582,1.231,1.231,0,0,1-.582.1c-.194,0-.291.1-.388.1v1.747l-.1.1a.339.339,0,0,0-.194.1h0l.194.194a1.05,1.05,0,0,1,.388.485h0v.485c0,.194.1.388.1.582v.291h0c0,.1-.1.194-.1.291v.1h0a2.677,2.677,0,0,0,1.456,1.456.875.875,0,0,0,.485.1h.874a1.873,1.873,0,0,0,.971-.291,2.65,2.65,0,0,0,1.165-.874,2.319,2.319,0,0,0,.485-1.359,2.585,2.585,0,0,0-.291-1.165h0c-.1-.291-.194-.485-.291-.777l-.291-.485a.339.339,0,0,0-.194-.1h0a.3.3,0,0,1-.1-.194v-.485l.1-.1h0a2.518,2.518,0,0,1,.582-1.359,10.628,10.628,0,0,1,1.068-.971,5.856,5.856,0,0,0,.777-.777l.291-.291c.1-.1.194-.194.194-.291a3.32,3.32,0,0,0,.1-1.068h0c.1-.485.1-.874.194-1.359v-.1c0-.291-.194-.679-.194-1.068a1.892,1.892,0,0,1-.1-.777,3.3,3.3,0,0,1,.1-.971,5.473,5.473,0,0,1,.1-.679,2.012,2.012,0,0,1,.194-.582,4.732,4.732,0,0,1,.291-.679.1.1,0,0,1,.1-.1,4.008,4.008,0,0,1,1.068-.679,3.349,3.349,0,0,0,.874-.777,10.519,10.519,0,0,0,.971-2.33V21.53a3.16,3.16,0,0,0-.388-1.359,7.273,7.273,0,0,1-.485-1.553v-.194h.194a4.918,4.918,0,0,0,1.262-.194h1.068a4.732,4.732,0,0,1,.679-.291h.194c.388,0,.777.1,1.165.1h0c.1.1.194.194.291.194l.1.1h.582c.291,0,.485.1.679.1h.1v.194a9.809,9.809,0,0,0,1.65.291h.291V16h0V14.056h.874c.1,0,.194-.1.388-.194a.727.727,0,0,1,.485-.1,4.2,4.2,0,0,0,.1-.485v-.971a.357.357,0,0,0,.1-.291Zm-26.3,12.716c0,.1-.1.291-.1.388a.52.52,0,0,1-.291.388c-.1.1-.194.1-.388.1h-.1l-.1-.1a1.7,1.7,0,0,1-.388-.485,1.4,1.4,0,0,1-.194-.679v-.194l.1-.1.1-.1h.1c.194,0,.291.1.485.1.194.1.388.1.485.194s.194.1.291.194l.1.1Zm2.815,2.33a1.938,1.938,0,0,0-.874-.194,3.7,3.7,0,0,1-.971-.291.969.969,0,0,1-.485-.388h0c0-.1-.1-.291-.1-.388s-.1-.1-.1-.194-.1-.194-.1-.388v-.1l.1-.291.291.1a12.705,12.705,0,0,1,2.621,1.844Zm20.966-13.007c0,.1-.1.194-.1.291s-.1.194-.194.291c-.194.194-.291.388-.485.582a.741.741,0,0,1-.485.194h-.1c-.1-.1-.194-.1-.388-.194-.291-.1-.582-.1-.874-.194h-.874c-.291-.1-.679-.291-.971-.388h-.1a.734.734,0,0,0-.388.1h-.1c-.1,0-.194-.1-.291-.1h-.194v-.388h.194c.582-.194,1.165-.291,1.747-.485h0c.291,0,.679-.1.971-.1h.679a2.992,2.992,0,0,1,.971.1,4.733,4.733,0,0,1,.679.291h.291Z" transform="translate(-75.62 -5.612)"/>
    </g>
  </g>
</svg>
